<svg xmlns="http://www.w3.org/2000/svg" style="display:none">
  <symbol id="icon-article" viewBox="0 0 24 24">
    <path fill="currentColor" d="M6 3h9l3 3v15a2 2 0 0 1-2 2H6a2 2 0 0 1-2-2V5a2 2 0 0 1 2-2zm8 1.5V7h2.5L14 4.5zM8 10h8v2H8v-2zm0 4h8v2H8v-2zm0 4h5v2H8v-2z"/>
  </symbol>
  <symbol id="icon-read" viewBox="0 0 24 24">
    <path fill="currentColor" d="M4 5.5C4 4.1 5.6 3 8 3c2 0 3.4.7 4 1.4.6-.7 2-1.4 4-1.4 2.4 0 4 1.1 4 2.5V19c0 .6-.5 1.2-1.2 1.2-.4 0-.8-.2-1.1-.5-.7-.6-1.8-1.2-3.2-1.2-1.5 0-2.8.7-3.5 1.3-.2.2-.5.2-.7 0-.7-.6-2-1.3-3.5-1.3-1.4 0-2.5.6-3.2 1.2-.3.3-.7.5-1.1.5-.7 0-1.2-.6-1.2-1.2V5.5z"/>
  </symbol>
  <symbol id="icon-dictate" viewBox="0 0 24 24">
    <path fill="currentColor" d="M12 3a4 4 0 0 1 4 4v5a4 4 0 0 1-8 0V7a4 4 0 0 1 4-4zm-7 9a1 1 0 0 1 1 1 6 6 0 0 0 12 0 1 1 0 1 1 2 0 8 8 0 0 1-7.75 8 1 1 0 0 1-.25 0A8 8 0 0 1 4 13a1 1 0 0 1 1-1zm4 9h6v2h-6v-2z"/>
  </symbol>
  <symbol id="icon-wordbook" viewBox="0 0 24 24">
    <path fill="currentColor" d="M5 4h9a2 2 0 0 1 2 2v14a2 2 0 0 0-2-2H5a2 2 0 0 0-2 2V6a2 2 0 0 1 2-2zm11 2h2a2 2 0 0 1 2 2v12a2 2 0 0 1-2 2h-2V6z"/>
  </symbol>
  <symbol id="icon-play" viewBox="0 0 24 24">
    <path fill="currentColor" d="M8 5.5v13l11-6.5-11-6.5z"/>
  </symbol>
  <symbol id="icon-stop" viewBox="0 0 24 24">
    <path fill="currentColor" d="M7 7h10v10H7V7z"/>
  </symbol>
  <symbol id="icon-check" viewBox="0 0 24 24">
    <path fill="currentColor" d="M9.5 16.2 4.8 11.5l1.4-1.4 3.3 3.3 7.3-7.3 1.4 1.4-8.7 8.7z"/>
  </symbol>
  <symbol id="icon-hint" viewBox="0 0 24 24">
    <path fill="currentColor" d="M12 2a7 7 0 0 0-4 12.7V18a1 1 0 0 0 1 1h6a1 1 0 0 0 1-1v-3.3A7 7 0 0 0 12 2zm-1 17h2v2h-2v-2z"/>
  </symbol>
  <symbol id="icon-next" viewBox="0 0 24 24">
    <path fill="currentColor" d="m10 6 6 6-6 6V6z"/>
  </symbol>
  <symbol id="icon-close" viewBox="0 0 24 24">
    <path fill="currentColor" d="M7.4 6 6 7.4 10.6 12 6 16.6 7.4 18l4.6-4.6L16.6 18 18 16.6 13.4 12 18 7.4 16.6 6 12 10.6 7.4 6z"/>
  </symbol>
  <symbol id="icon-add" viewBox="0 0 24 24">
    <path fill="currentColor" d="M11 5h2v6h6v2h-6v6h-2v-6H5v-2h6V5z"/>
  </symbol>
  <symbol id="icon-star" viewBox="0 0 24 24">
    <path fill="currentColor" d="M12 3.5 14.2 9l5.5.5-4.2 3.5 1.3 5.4L12 15.8 7.2 18.4l1.3-5.4-4.2-3.5 5.5-.5L12 3.5z"/>
  </symbol>
  <symbol id="icon-trash" viewBox="0 0 24 24">
    <path fill="currentColor" d="M9 4h6l1 2h4v2H4V6h4l1-2zm1 6h2v8h-2v-8zm4 0h2v8h-2v-8zM7 8v12h10V8H7z"/>
  </symbol>
  <symbol id="icon-sample" viewBox="0 0 24 24">
    <path fill="currentColor" d="M5 4h11l3 3v13H5V4zm10 1.5V7h1.8L15 5.5z"/>
  </symbol>
</svg>
